#!OML:ASF E:/inclinewalkrobotboard/Project1/Captureday1/Session1/subject1.ASF
:FULLY-SPECIFIED
:DEGREES
163
root 0 0 0 76.31709147933236 -27.40370854066181 -45.460443496943924
lowerback -11.188261251651648 7.863076137045416 9.569386665314747
upperback -20.517253288659155 10.074257835885575 2.9598672673072475
thorax -15.456435474400608 3.969929920714714 -1.7119325420920966
lowerneck -7.543173165516102 9.772321631046431 5.411049050137628
upperneck 11.708819150918858 11.681185334023139 7.28840151161501
head 4.8042513841971 6.267598592643749 2.077120414816668
rclavicle 6.0824810149411715E-15 -3.4247223164503016E-15
rhumerus 108.75852188357577 -24.947977435328262 -115.14598271063531
rradius 0.8349834136449736
rwrist 69.6124057086974
rhand 13.70742826576927 -12.587437243500903
rfingers 7.125020000000017
rthumb 38.704610973059474 -38.4833801715737
lclavicle -6.520834510737678E-16 1.4996788963993694E-15
lhumerus -0.16715692754111622 24.91655705493757 1.6854841000419825
lradius 9.312080182651165
lwrist -41.45276270265127
lhand 12.116658245486429 36.74961759423029
lfingers 7.125020000000047
lthumb 37.22306324690071 63.83754667966388
rfemur 183.102640287861 -219.7516896374187 -192.0737763023665
rtibia 67.36550871649274
rfoot -22.88090931125665 -9.898698105679179
rtoes 49.861878589689965
lfemur -109.45556495804877 35.76922458534461 -24.133604539662493
ltibia 68.053633347195
lfoot -38.313040398073696 35.583061441433564
ltoes 38.94536176443268
164
root 0 0 0 76.31607993473125 -27.409058727880318 -45.45881057854172
lowerback -11.188100330630116 7.863121749350183 9.568341019488305
upperback -20.516279277137848 10.074293874859313 2.959011816862408
thorax -15.455543675671699 3.970009815981954 -1.7123106319925476
lowerneck -7.54470441697754 9.772178811714921 5.411259770586261
upperneck 11.709446510733137 11.680813433174581 7.288242366482928
head 4.804705236960645 6.267476059339892 2.0771009023213214
rclavicle 6.0740419556925426E-15 -3.421773057781539E-15
rhumerus 108.7409240836449 -24.943205456543744 -115.14491086528585
rradius 0.8219388974001198
rwrist 69.62908880360231
rhand 13.719539938065704 -12.595399656096037
rfingers 7.125020000000017
rthumb 38.71622284489993 -38.489488528166
lclavicle -6.735813227802736E-16 1.5005563546281137E-15
lhumerus -0.12930784638021287 24.963285769096494 1.7102489879429754
lradius 9.289227499069707
lwrist -41.46067621406972
lhand 12.101369573263696 36.738159190027446
lfingers 7.125020000000047
lthumb 37.20860003485126 63.82969637465766
rfemur 183.09483611794582 -219.7424737996003 -192.0678412547433
rtibia 67.36845756150258
rfoot -22.85899843422503 -9.91893720763789
rtoes 49.87356034440249
lfemur -109.45619292557521 35.76578982524677 -24.14078097532248
ltibia 68.0899892686689
lfoot -38.32080895832721 35.57716119642858
ltoes 38.932753592316374
165
root 0 0 0 76.32058964842132 -27.385321358716034 -45.46624782029554
lowerback -11.18875316397935 7.862838048303523 9.572990289204117
upperback -20.51978448376487 10.074117773763588 2.96228328706427
thorax -15.458485468425145 3.9696300165812124 -1.7113726245308047
lowerneck -7.538826156346765 9.771755381209093 5.410270873918097
upperneck 11.71041321223191 11.680758996062554 7.288016927125252
head 4.804295510964025 6.26723662353293 2.0768515852003433
rclavicle 6.141166932130714E-15 -3.3482927337422805E-15
rhumerus 108.80711619126521 -24.943576731740123 -115.12027961156033
rradius 0.8773727876494206
rwrist 69.58006106420515
rhand 13.693145628090651 -12.576168886237825
rfingers 7.125020000000017
rthumb 38.69044137062711 -38.47320761489405
lclavicle -5.707776912013215E-16 1.57816585837931E-15
lhumerus -0.42506178608329925 24.811507852523626 1.6981279046548323
lradius 9.363130421537896
lwrist -41.45303286282239
lhand 12.130559623281565 36.76923942455861
lfingers 7.125020000000047
lthumb 37.23613892000945 63.852548837477414
rfemur 183.1055621998583 -219.7819773886856 -192.086105197005
rtibia 67.32958882891262
rfoot -23.052254880889418 -9.802082849998836
rtoes 49.809373939399194
lfemur -109.45869589945673 35.77419578245646 -24.12947381416527
ltibia 67.95535837985912
lfoot -38.29064924074727 35.60905758634533
ltoes 38.972585673669606
166
root 0 0 0 76.31809741705631 -27.39839428001742 -45.4620764492432
lowerback -11.188381251079873 7.86300627212116 9.570403735731022
upperback -20.518082680455304 10.074204451101888 2.960613777629651
thorax -15.457166819758045 3.969840089130212 -1.7116867327091665
lowerneck -7.541829555686423 9.77230044186256 5.410843583651403
upperneck 11.708815507879988 11.681291938945856 7.288374192714308
head 4.804070278356679 6.267598794123056 2.0770750910635813
rclavicle 6.08757042299511E-15 -3.4257190700609262E-15
rhumerus 108.81041156259822 -24.954425023853425 -115.15323572777282
rradius 0.8562061777570626
rwrist 69.59715948863396
rhand 13.689662577678298 -12.577729712902494
rfingers 7.125020000000017
rthumb 38.68755770568655 -38.47647254091349
lclavicle -6.271367994916123E-16 1.5031430399043919E-15
lhumerus -0.23795846293034195 24.86284223116611 1.6709746456794932
lradius 9.337780742536932
lwrist -41.44508023888014
lhand 12.12824241066095 36.762291398354485
lfingers 7.125020000000047
lthumb 37.23398530776075 63.84701109057393
rfemur 183.11447227603554 -219.76753292861585 -192.0841782819022
rtibia 67.35632184071409
rfoot -22.92926734417812 -9.858406007434493
rtoes 49.843671547886956
lfemur -109.45184644141099 35.770579405958834 -24.123931204899662
ltibia 68.00028419840118
lfoot -38.31155739236206 35.59233584407089
ltoes 38.96173117677164
167
root 0 0 0 76.31733081770722 -27.401823851450953 -45.4609086059005
lowerback -11.188143937210427 7.863081205669573 9.569637242929474
upperback -20.517570034371637 10.074262050973426 2.9601141500637733
thorax -15.456835011608757 3.969917448681816 -1.7117885810152842
lowerneck -7.542736064208906 9.772435512268453 5.41096490314707
upperneck 11.708162800156506 11.681432473873048 7.28849590664618
head 4.803938312281134 6.267692596046787 2.0771462480198677
rclavicle 6.0809150496739515E-15 -3.4276959484608764E-15
rhumerus 108.7779315966607 -24.95383881301148 -115.159184754498
rradius 0.835543190937134
rwrist 69.6156628181301
rhand 13.699064486113517 -12.583648401756493
rfingers 7.125020000000017
rthumb 38.69669681627924 -38.48118972812509
lclavicle -6.538828247167164E-16 1.495940811161503E-15
lhumerus -0.15333083811451864 24.908658271799695 1.6746941440945946
lradius 9.316782733544922
lwrist -41.44928506880136
lhand 12.120285053657245 36.752470900771115
lfingers 7.125020000000047
lthumb 37.22649066393525 63.839609042666254
rfemur 183.10497432511713 -219.74992472591302 -192.07330471224708
rtibia 67.36750253409978
rfoot -22.86726671824004 -9.902598451691043
rtoes 49.86195707602311
lfemur -109.44838547203285 35.76865884576118 -24.128415859057462
ltibia 68.03752184929898
lfoot -38.319138780686544 35.583354779723706
ltoes 38.94971953379541
